<?xml version="1.0" standalone="no"?>
<!DOCTYPE svg PUBLIC "-//W3C//DTD SVG 20010904//EN"
 "http://www.w3.org/TR/2001/REC-SVG-20010904/DTD/svg10.dtd">
<svg version="1.0" xmlns="http://www.w3.org/2000/svg"
 width="490.000000pt" height="490.000000pt" viewBox="0 0 490.000000 490.000000"
 preserveAspectRatio="xMidYMid meet">
<metadata>
Created by potrace 1.14, written by Peter Selinger 2001-2017
</metadata>
<g transform="translate(0.000000,490.000000) scale(0.100000,-0.100000)"
fill="#000000" stroke="none">
<path d="M0 2477 l0 -2423 28 -27 28 -27 2422 0 2422 0 0 2450 0 2450 -2450 0
-2450 0 0 -2423z m618 2349 c60 -31 102 -96 102 -157 0 -43 -36 -107 -73 -129
-38 -24 -116 -26 -156 -6 -15 8 -43 32 -61 52 -30 35 -32 41 -28 96 3 47 10
64 34 89 62 67 124 85 182 55z m521 -6 c72 -36 114 -112 96 -172 -27 -88 -81
-132 -161 -130 -88 1 -164 74 -164 158 0 38 35 99 77 133 45 37 95 41 152 11z
m528 -5 c52 -31 73 -69 73 -133 0 -100 -92 -185 -183 -168 -42 8 -110 65 -127
106 -17 41 -8 111 20 150 52 73 138 91 217 45z m480 14 c71 -26 112 -102 93
-170 -36 -130 -163 -178 -256 -97 -49 43 -67 83 -61 134 12 107 121 172 224
133z m2651 -715 l22 -6 0 -1807 c0 -1994 5 -1853 -64 -1988 -53 -106 -161
-198 -277 -237 -42 -13 -268 -15 -1995 -16 -1915 -2 -1950 -1 -2011 18 -88 28
-142 62 -205 130 -56 61 -81 104 -120 213 l-23 64 0 1800 c0 990 3 1808 7
1818 7 16 127 17 2325 17 1275 0 2328 -3 2341 -6z"/>
<path d="M3878 3843 c-43 -7 -51 -26 -52 -130 l-1 -96 -40 -17 -40 -17 -83 94
c-68 77 -88 93 -112 93 -37 0 -87 -43 -98 -83 -13 -49 4 -81 79 -151 70 -64
77 -80 63 -133 -6 -22 -11 -23 -96 -23 -81 0 -91 -2 -113 -25 -32 -31 -34 -95
-5 -142 l20 -33 89 0 89 0 13 -37 12 -37 -82 -77 c-68 -65 -81 -82 -81 -109 0
-45 25 -93 59 -113 45 -26 74 -22 101 16 13 17 49 60 79 94 53 60 56 62 78 48
12 -8 34 -15 49 -15 l27 0 -7 -79 c-9 -99 4 -153 39 -169 41 -19 99 -15 129 9
25 20 26 24 26 129 l0 108 48 16 47 17 39 -43 c133 -146 135 -148 170 -148 45
0 83 32 96 80 14 53 8 63 -98 158 l-89 79 18 35 c18 35 19 35 101 43 45 4 90
11 99 16 38 20 51 122 20 160 -17 21 -27 23 -114 23 l-95 1 -6 44 c-6 42 -4
46 36 80 23 20 52 43 66 52 32 22 62 68 62 97 0 31 -25 77 -52 96 -12 9 -39
16 -59 16 -33 0 -43 -6 -85 -57 -26 -32 -64 -75 -83 -95 l-34 -37 -25 19 c-14
11 -34 20 -45 20 -19 0 -19 4 -13 93 8 114 1 128 -70 132 -27 2 -61 1 -76 -2z
m108 -443 c98 -48 99 -192 1 -242 -58 -29 -112 -20 -154 26 -66 71 -65 151 1
201 53 39 93 43 152 15z"/>
<path d="M605 3755 c-22 -8 -41 -15 -42 -15 -2 0 -16 -19 -33 -42 -24 -32 -30
-51 -30 -90 0 -59 17 -94 65 -137 29 -25 45 -31 80 -31 38 0 52 6 86 37 22 20
47 49 55 64 22 43 18 110 -8 149 -46 67 -105 89 -173 65z"/>
<path d="M1029 3727 c-47 -32 -79 -83 -79 -126 0 -45 36 -109 76 -136 30 -20
45 -21 387 -23 344 -3 357 -2 399 19 85 41 113 136 66 219 -40 70 -42 70 -451
70 -362 0 -364 0 -398 -23z"/>
<path d="M2135 3740 c-60 -3 -96 -7 -80 -9 l30 -3 -30 -8 c-16 -4 -25 -8 -18
-9 8 -1 7 -15 -3 -53 -35 -127 -35 -136 0 -172 l31 -32 240 0 240 1 3 33 c2
18 7 30 12 27 4 -3 6 4 3 15 -3 11 0 20 6 20 6 0 11 -6 12 -12 0 -7 5 0 10 16
5 19 5 34 -2 42 -7 8 -6 14 3 17 11 4 10 6 0 6 -8 1 -10 6 -6 14 5 8 4 9 -4 2
-6 -5 -12 -23 -15 -40 -4 -28 -4 -28 -6 6 -1 37 21 70 34 49 3 -5 11 -10 17
-10 6 0 1 9 -12 20 -13 11 -19 20 -14 20 6 0 15 -5 22 -12 9 -9 15 -9 25 1 6
7 8 12 2 11 -21 -4 -29 1 -16 9 10 7 4 15 -25 35 -38 26 -41 26 -194 24 -85
-1 -204 -5 -265 -8z m395 -265 c0 -8 -4 -15 -10 -15 -5 0 -10 7 -10 15 0 8 5
15 10 15 6 0 10 -7 10 -15z"/>
<path d="M2611 3507 c-13 -21 -12 -21 5 -5 10 10 16 20 13 22 -3 3 -11 -5 -18
-17z"/>
<path d="M2563 3475 c0 -7 6 -11 14 -8 7 3 13 6 13 8 0 2 -6 5 -13 8 -8 3 -14
-1 -14 -8z"/>
<path d="M579 3167 c-54 -36 -79 -82 -79 -144 0 -134 103 -207 210 -150 65 34
90 76 90 149 0 74 -19 110 -73 143 -54 31 -104 32 -148 2z"/>
<path d="M1057 3171 c-31 -10 -69 -46 -88 -84 -36 -70 -15 -149 53 -200 24
-18 48 -19 531 -18 282 1 517 5 531 11 13 5 27 7 30 4 3 -2 4 -1 1 3 -3 3 9
15 26 25 27 16 29 21 17 35 -7 9 -8 14 -2 10 7 -4 18 1 25 10 16 19 16 23 -3
34 -10 7 -10 9 0 9 6 0 12 7 12 16 0 8 4 13 10 9 5 -3 5 6 -1 24 -14 41 -81
99 -121 105 -38 7 -1002 13 -1021 7z"/>
<path d="M608 2578 c-53 -14 -105 -74 -113 -133 -14 -90 65 -184 154 -185 52
0 119 44 142 93 41 90 14 172 -71 215 -48 24 -57 25 -112 10z"/>
<path d="M1714 2581 l-671 -6 -35 -27 c-63 -48 -75 -138 -28 -213 43 -69 -5
-65 773 -70 484 -3 715 -2 734 6 87 33 138 151 98 229 -8 16 -31 41 -51 56
-44 34 28 32 -820 25z"/>
<path d="M600 1989 c-14 -6 -38 -22 -53 -37 -85 -80 -75 -194 22 -259 100 -67
240 22 241 152 0 100 -118 181 -210 144z"/>
<path d="M1383 1993 l-331 -3 -49 -44 c-48 -44 -48 -44 -48 -108 0 -55 4 -70
28 -101 52 -68 37 -66 422 -67 193 -1 358 -1 367 -1 28 2 90 63 110 109 25 57
17 111 -25 158 -37 43 -77 65 -114 62 -15 -2 -177 -4 -360 -5z"/>
<path d="M2433 1990 l-292 -5 -31 -30 c-18 -16 -38 -42 -46 -57 -30 -57 -6
-156 49 -207 l26 -24 408 -2 c308 -1 414 1 433 11 52 26 110 110 110 161 0 39
-44 106 -88 134 -44 28 -50 29 -161 27 -64 -1 -247 -5 -408 -8z"/>
<path d="M3476 1599 c-33 -26 -50 -84 -76 -264 -33 -229 -24 -453 24 -633 28
-105 74 -142 174 -142 79 0 112 26 112 87 -1 49 -19 73 -64 80 -20 3 -38 9
-40 12 -3 4 -12 81 -21 171 -15 139 -15 186 -6 300 20 236 17 226 62 239 70
21 91 100 38 145 -27 23 -40 26 -103 26 -59 0 -78 -4 -100 -21z"/>
<path d="M4193 1605 c-51 -36 -34 -129 26 -141 28 -6 28 -7 42 -122 14 -115
17 -529 5 -579 -5 -17 -16 -24 -46 -29 -49 -8 -52 -12 -52 -71 0 -36 6 -51 26
-72 23 -22 33 -25 97 -25 62 1 74 4 96 26 25 25 53 107 75 218 6 30 11 149 12
265 0 185 -3 227 -27 350 -24 128 -29 142 -57 168 -27 24 -38 27 -103 27 -49
0 -80 -5 -94 -15z"/>
<path d="M582 1373 c-80 -39 -114 -141 -73 -220 27 -55 72 -85 132 -91 42 -4
55 0 90 24 48 33 68 68 75 132 14 123 -112 210 -224 155z"/>
<path d="M2215 1381 c-81 -7 -105 -20 -134 -72 -37 -66 -22 -161 36 -221 l27
-28 410 0 c392 0 412 1 444 20 61 37 102 134 82 194 -11 34 -59 85 -97 105
-23 12 -634 13 -768 2z"/>
<path d="M1045 1371 c-37 -16 -73 -58 -86 -100 -16 -54 0 -109 46 -159 l33
-37 379 -3 c363 -2 379 -2 411 18 17 11 31 24 30 29 -2 5 2 10 7 11 19 3 36
23 31 37 -3 8 -1 11 4 8 18 -11 11 88 -9 125 -10 19 -33 45 -51 58 -33 22 -35
22 -404 21 -204 0 -380 -4 -391 -8z"/>
<path d="M3762 1281 c-8 -4 -16 -27 -19 -49 -8 -59 11 -83 90 -111 67 -23 93
-42 83 -60 -4 -5 -35 -19 -71 -31 -98 -33 -107 -43 -103 -119 2 -44 8 -67 18
-73 21 -14 294 103 336 143 26 26 32 40 37 92 3 34 2 69 -3 78 -9 15 -105 58
-255 113 -75 28 -93 30 -113 17z"/>
<path d="M1079 789 c-106 -17 -162 -142 -108 -239 46 -81 38 -80 457 -80 l370
0 31 35 c66 76 78 149 32 211 -54 76 -41 73 -414 76 -184 2 -350 0 -368 -3z"/>
<path d="M2005 754 c9 -27 21 -74 29 -104 18 -74 38 -111 81 -149 l36 -31 159
0 c87 0 171 5 187 11 41 15 102 78 112 116 13 44 -2 100 -36 135 -53 56 -65
58 -280 57 -109 0 -222 3 -250 6 l-53 8 15 -49z"/>
<path d="M578 770 c-57 -31 -83 -75 -83 -142 0 -63 19 -97 75 -135 71 -49 176
-18 215 64 26 53 25 124 -1 160 -53 71 -132 92 -206 53z"/>
</g>
</svg>
